# xmcd CD database file
#
# Track frame offsets:
#	150
#	11527
#	26000
#	38091
#	51691
#	66173
#	76353
#	91824
#	109647
#	123653
#	136298
#	150166
#	166701
#	178861
#	192048
#
# Disc length: 2719 seconds
#
# Revision: 0
# Processed by: cddbd v1.5.1PL2 Copyright (c) Steve Scherf et al.
# Submitted via: CDex 1.51
#
DISCID=ba0a9d0f
DTITLE=Manfred Krug and Charles Brauer - Tatort- Die Songs
DYEAR=1900
DGENRE=Jazz
TTITLE0=Over the Rainbow
TTITLE1=All of Me
TTITLE2=Ganz leise
TTITLE3=Cry me a river
TTITLE4=Quiet nights of Corcovado
TTITLE5=But not for me
TTITLE6=Spiel mir eine alte Melodie
TTITLE7=Goody Goody
TTITLE8=Sentimental Journey
TTITLE9=Kann denn Liebe Sünde sein?
TTITLE10=As time goes by
TTITLE11=Stormy wheather
TTITLE12=Jim, Jonny und Jonas
TTITLE13=Musik! Musik! Musik!
TTITLE14=Bey bey Blackbird
EXTD=
EXTT0=
EXTT1=
EXTT2=
EXTT3=
EXTT4=
EXTT5=
EXTT6=
EXTT7=
EXTT8=
EXTT9=
EXTT10=
EXTT11=
EXTT12=
EXTT13=
EXTT14=
PLAYORDER=
